{"glyphs":{"0":{"ha":728,"x_min":0,"x_max":0,"o":"m 364 -14 b 21 497 122 -14 21 211 b 364 986 21 783 122 986 b 707 497 606 986 707 783 b 364 -14 707 211 606 -14 m 225 497 b 364 32 225 211 278 32 b 503 497 450 32 503 211 b 364 940 503 783 450 940 b 225 497 278 940 225 783 "},"1":{"ha":361,"x_min":0,"x_max":0,"o":"m 57 756 b 46 829 19 756 4 799 l 210 949 b 265 972 225 960 246 972 b 301 910 285 972 301 958 l 301 210 b 340 32 301 96 340 64 b 301 0 340 0 301 0 b 117 0 301 0 117 0 b 78 32 78 0 78 32 b 117 210 78 64 117 96 l 117 715 b 86 758 117 751 101 758 b 57 756 75 758 65 756 "},"2":{"ha":665,"x_min":0,"x_max":0,"o":"m 96 0 b 51 185 19 0 -3 108 b 440 749 203 399 440 490 b 344 940 440 851 403 940 b 124 728 250 940 225 728 b 38 808 60 728 38 774 b 344 986 38 901 150 986 b 644 746 522 986 644 906 b 232 185 644 464 374 429 l 386 185 b 608 315 526 185 563 315 b 621 311 613 315 617 314 b 578 26 653 293 579 28 b 507 0 565 4 528 0 l 96 0 "},"3":{"ha":704,"x_min":0,"x_max":0,"o":"m 540 486 b 683 265 611 449 683 376 b 333 -14 683 81 506 -14 b 21 164 133 -14 21 71 b 107 244 21 199 43 244 b 333 32 208 244 233 32 b 479 249 386 32 479 93 b 376 428 479 318 468 428 b 376 544 317 433 317 539 b 479 740 376 544 479 538 b 369 940 479 851 428 940 b 149 728 275 940 250 728 b 63 808 85 728 63 774 b 369 986 63 901 175 986 b 683 724 547 986 683 892 b 540 486 683 610 611 526 "},"4":{"ha":656,"x_min":0,"x_max":0,"o":"m 47 307 b 29 353 13 307 18 336 l 394 872 l 488 949 b 539 969 501 960 521 969 b 579 910 561 969 579 956 l 579 353 l 615 353 b 615 307 642 353 642 307 l 579 307 l 579 210 b 618 32 579 96 618 64 b 579 0 618 0 579 0 b 394 0 579 0 394 0 b 394 0 394 0 394 0 b 356 32 368 0 356 11 b 394 210 356 64 394 96 l 394 307 l 47 307 m 394 353 l 394 792 l 85 353 "},"5":{"ha":649,"x_min":0,"x_max":0,"o":"m 114 757 b 92 735 97 757 92 743 l 92 611 b 101 579 92 599 92 579 b 267 596 149 589 206 596 b 628 283 438 596 628 535 b 315 -14 628 108 514 -14 b 21 161 114 -14 21 68 b 107 242 21 196 43 242 b 315 32 208 242 214 32 b 424 265 392 32 424 174 b 221 458 424 424 315 458 b 79 438 146 458 79 438 b 46 481 53 438 46 460 l 46 904 b 90 942 46 925 57 942 l 429 942 b 578 972 517 942 551 972 b 596 967 585 972 590 971 b 572 783 626 947 574 785 b 501 757 560 761 522 757 "},"6":{"ha":728,"x_min":0,"x_max":0,"o":"m 381 -14 b 21 453 122 -14 21 197 b 451 986 21 769 210 986 b 675 833 585 986 664 883 b 619 768 683 794 651 768 b 563 814 596 768 572 781 b 451 940 546 875 506 940 b 240 622 382 940 278 829 b 418 693 296 671 358 693 b 707 349 568 693 707 557 b 381 -14 707 78 503 -14 m 225 453 b 381 32 225 197 278 32 b 503 349 468 32 503 193 b 361 613 503 533 438 613 b 229 542 318 613 271 588 b 225 453 226 514 225 483 "},"7":{"ha":690,"x_min":0,"x_max":0,"o":"m 29 661 b 72 946 -3 679 71 944 b 143 972 85 968 122 972 l 571 972 b 651 788 683 972 683 876 l 447 210 b 453 32 408 101 453 64 b 414 0 453 0 414 0 b 213 0 414 0 213 0 b 172 32 172 0 172 32 b 244 210 172 64 188 119 l 592 753 b 581 788 600 767 604 788 l 236 788 b 42 657 122 788 88 657 b 29 661 38 657 33 658 "},"8":{"ha":756,"x_min":0,"x_max":0,"o":"m 21 269 b 243 529 21 438 142 503 b 63 743 156 563 63 628 b 378 986 63 932 254 986 b 693 743 501 986 693 932 b 513 529 693 628 600 563 b 735 269 614 503 735 438 b 378 -14 735 -3 424 -14 b 21 269 332 -14 21 -3 m 378 500 b 225 269 351 500 225 486 b 378 32 225 53 346 32 b 531 269 410 32 531 53 b 378 500 531 486 404 500 m 267 743 b 378 546 267 624 338 546 b 489 743 418 546 489 624 b 378 940 489 863 446 940 b 267 743 310 940 267 863 "},"9":{"ha":728,"x_min":0,"x_max":0,"o":"m 21 624 b 347 986 21 894 225 986 b 707 519 606 986 707 775 b 276 -14 707 203 518 -14 b 53 139 143 -14 64 89 b 108 204 44 178 76 204 b 165 158 132 204 156 192 b 276 32 182 97 222 32 b 488 350 346 32 450 143 b 310 279 432 301 369 279 b 21 624 160 279 21 415 m 225 624 b 367 360 225 439 290 360 b 499 431 410 360 457 385 b 503 519 501 458 503 489 b 347 940 503 775 450 940 b 225 624 260 940 225 779 "},"\u0000":{"ha":0,"x_min":0,"x_max":0,"o":""},"\r":{"ha":347,"x_min":0,"x_max":0,"o":""}," ":{"ha":347,"x_min":0,"x_max":0,"o":""},"a":{"ha":643,"x_min":0,"x_max":0,"o":"m 21 185 b 313 460 21 364 182 401 b 392 506 340 472 369 490 b 311 663 385 594 358 663 b 103 486 250 663 204 486 b 28 561 49 486 28 526 b 311 708 28 654 144 708 b 547 546 468 708 529 649 b 579 121 560 476 568 178 b 622 32 588 79 622 69 b 582 0 622 11 604 0 l 407 0 b 367 38 390 0 374 11 b 215 -15 326 7 267 -15 b 21 185 96 -15 21 86 m 331 397 b 225 197 283 364 225 308 b 297 78 225 157 235 78 b 364 100 322 78 343 88 b 394 418 371 179 389 279 l 394 442 b 331 397 379 431 357 415 "},"b":{"ha":693,"x_min":0,"x_max":0,"o":"m 57 831 b 57 944 14 875 4 901 l 150 1021 b 201 1042 163 1032 183 1042 b 242 982 224 1042 242 1028 l 242 643 b 397 708 286 683 339 708 b 672 349 550 708 672 539 b 397 -14 672 157 550 -14 b 236 58 338 -14 281 13 b 100 0 219 42 169 0 b 57 61 58 0 57 19 l 57 831 m 242 124 b 342 64 269 88 304 64 b 468 349 440 64 468 225 b 342 631 468 471 440 631 b 242 572 304 631 269 607 "},"c":{"ha":596,"x_min":0,"x_max":0,"o":"m 21 346 b 350 708 21 563 136 708 b 574 561 454 708 574 654 b 489 486 574 526 543 486 b 350 663 388 486 411 663 b 225 346 306 663 225 563 b 350 32 225 143 301 32 b 461 158 404 32 446 97 b 517 204 469 192 493 204 b 574 139 550 204 581 178 b 350 -14 564 89 483 -14 b 21 346 136 -14 21 143 "},"d":{"ha":696,"x_min":0,"x_max":0,"o":"m 296 -14 b 21 349 143 -14 21 157 b 296 708 21 539 143 708 b 451 643 354 708 407 683 l 451 831 b 451 944 408 875 399 901 l 544 1021 b 596 1042 557 1032 578 1042 b 636 982 618 1042 636 1028 l 636 210 b 675 32 636 96 675 64 b 636 0 675 11 663 0 l 494 0 b 451 53 456 0 451 17 b 296 -14 407 11 354 -14 m 225 349 b 351 64 225 225 253 64 b 451 124 389 64 424 88 l 451 572 b 351 631 424 607 389 631 b 225 349 253 631 225 471 "},"e":{"ha":621,"x_min":0,"x_max":0,"o":"m 350 -14 b 21 360 136 -14 21 157 b 340 708 21 576 136 708 b 600 493 467 708 600 650 b 371 332 600 357 489 332 l 225 332 b 350 32 225 115 301 32 b 479 165 410 32 456 101 b 536 208 490 196 514 208 b 589 139 569 208 601 179 b 350 -14 571 81 483 -14 m 340 663 b 226 378 300 663 235 565 l 315 378 b 396 499 381 378 396 443 b 340 663 396 576 381 663 "},"f":{"ha":719,"x_min":0,"x_max":0,"o":"m 44 649 b 44 694 13 649 13 694 l 142 694 l 142 768 b 451 1056 142 957 279 1056 b 699 922 579 1056 699 1015 b 614 847 699 888 668 847 b 451 1010 513 847 538 1010 b 326 768 386 1010 326 957 l 326 694 l 424 694 b 424 649 456 694 456 649 l 326 649 l 326 210 b 365 32 326 96 365 64 b 326 0 365 0 326 0 b 142 0 326 0 142 0 b 103 32 103 0 103 32 b 142 210 103 64 142 96 l 142 649 l 44 649 "},"g":{"ha":715,"x_min":0,"x_max":0,"o":"m -24 -217 b 61 -142 -24 -182 7 -142 b 285 -301 163 -142 135 -301 b 483 -129 435 -301 483 -208 b 200 26 483 -21 368 8 b 100 150 107 36 74 90 b 135 222 118 190 131 214 b 24 438 71 261 24 328 b 306 707 24 636 179 699 b 503 889 311 731 347 889 b 694 756 575 889 694 849 b 610 681 694 721 664 681 b 471 829 508 681 547 829 b 353 708 385 829 357 729 b 654 438 482 704 654 647 b 339 172 654 221 469 172 b 179 200 289 172 232 179 b 158 143 172 183 164 161 b 228 126 154 129 181 126 b 340 128 258 126 296 128 b 692 -92 635 128 692 0 b 285 -347 692 -317 374 -347 b -24 -217 86 -347 -24 -310 m 339 663 b 228 438 294 663 228 626 b 339 218 228 249 294 218 b 450 438 383 218 450 249 b 339 663 450 626 383 663 "},"h":{"ha":708,"x_min":0,"x_max":0,"o":"m 60 831 b 60 944 60 893 7 901 l 153 1021 b 204 1042 165 1032 186 1042 b 244 982 226 1042 244 1028 l 244 606 b 426 708 292 664 350 708 b 613 546 515 708 594 649 b 644 121 625 476 633 178 b 688 32 653 79 688 69 b 647 0 688 11 669 0 l 472 0 b 428 72 449 0 426 21 b 460 418 431 156 454 263 b 390 633 464 546 468 633 b 244 524 346 633 289 589 l 244 210 b 283 32 244 96 283 64 b 244 0 283 0 244 0 b 60 0 244 0 60 0 b 21 32 33 0 21 11 b 60 210 21 64 60 96 l 60 831 "},"i":{"ha":304,"x_min":0,"x_max":0,"o":"m 60 478 b 60 592 17 522 7 549 l 153 668 b 208 694 167 681 189 694 b 244 629 228 694 244 679 l 244 210 b 283 32 244 96 283 64 b 244 0 283 0 244 0 b 60 0 244 0 60 0 b 21 32 21 0 21 32 b 60 210 21 64 60 96 l 60 478 m 26 914 b 153 1042 26 983 82 1042 b 278 914 222 1042 278 983 b 153 788 278 843 222 788 b 26 914 82 788 26 843 "},"j":{"ha":293,"x_min":0,"x_max":0,"o":"m -18 -347 b -183 -210 -76 -347 -183 -310 b -106 -139 -183 -162 -144 -139 b -35 -203 -69 -139 -35 -160 b -18 -301 -35 -258 -36 -301 b 72 57 64 -301 72 -62 l 72 478 b 72 592 29 522 19 549 l 165 668 b 221 694 183 682 204 694 b 257 629 242 694 257 678 l 257 57 b -18 -347 257 -99 267 -347 m 21 914 b 147 1042 21 983 76 1042 b 272 914 217 1042 272 983 b 147 788 272 843 217 788 b 21 914 76 788 21 843 "},"k":{"ha":706,"x_min":0,"x_max":0,"o":"m 60 831 b 60 944 17 875 7 901 l 153 1021 b 204 1042 165 1032 186 1042 b 244 982 226 1042 244 1028 l 244 431 b 499 614 422 451 488 519 b 486 671 501 638 486 657 b 525 694 486 694 525 694 b 608 694 525 694 608 694 b 647 671 635 694 647 686 b 631 622 647 653 640 646 b 390 415 601 510 497 449 b 631 117 551 360 611 165 b 685 32 647 75 685 69 b 643 0 685 7 665 0 l 468 0 b 424 72 444 0 433 22 b 244 368 401 189 346 368 l 244 210 b 283 32 244 96 283 64 b 244 0 283 0 244 0 b 60 0 244 0 60 0 b 21 32 33 0 21 11 b 60 210 21 64 60 96 l 60 831 "},"l":{"ha":304,"x_min":0,"x_max":0,"o":"m 60 831 b 60 944 60 893 7 901 l 153 1021 b 204 1042 165 1032 186 1042 b 244 982 226 1042 244 1028 l 244 210 b 283 32 244 96 283 64 b 244 0 283 0 244 0 b 60 0 244 0 60 0 b 21 32 21 0 21 32 b 60 210 21 64 60 96 l 60 831 "},"m":{"ha":1028,"x_min":0,"x_max":0,"o":"m 60 483 b 60 597 60 546 7 554 l 153 674 b 204 694 165 685 186 694 b 243 649 222 694 239 683 b 385 708 283 685 329 708 b 556 596 458 708 525 668 b 746 708 606 660 665 708 b 932 546 835 708 914 649 b 964 121 944 476 953 178 b 1007 32 972 79 1007 69 b 967 0 1007 11 989 0 l 792 0 b 747 72 768 0 746 21 b 779 418 750 156 774 263 b 710 633 783 546 788 633 b 572 536 668 633 615 594 b 603 121 585 451 592 175 b 646 32 611 79 646 69 b 606 0 646 11 628 0 l 431 0 b 386 72 407 0 385 21 b 418 418 389 156 413 263 b 349 633 422 546 426 633 b 244 575 317 633 279 611 l 244 210 b 283 32 244 96 283 64 b 244 0 283 0 244 0 b 60 0 244 0 60 0 b 21 32 33 0 21 11 b 60 210 21 64 60 96 l 60 483 "},"n":{"ha":708,"x_min":0,"x_max":0,"o":"m 60 483 b 60 597 60 546 7 554 l 153 674 b 204 694 165 685 186 694 b 244 635 226 694 244 681 l 244 606 b 426 708 292 664 350 708 b 613 546 515 708 594 649 b 644 121 625 476 633 178 b 688 32 653 79 688 69 b 647 0 688 11 669 0 l 472 0 b 428 72 449 0 426 21 b 460 418 431 156 454 263 b 390 633 464 546 468 633 b 244 524 346 633 289 589 l 244 210 b 283 32 244 96 283 64 b 244 0 283 0 244 0 b 60 0 244 0 60 0 b 21 32 33 0 21 11 b 60 210 21 64 60 96 l 60 483 "},"o":{"ha":700,"x_min":0,"x_max":0,"o":"m 350 -14 b 21 347 136 -14 21 131 b 350 708 21 564 136 708 b 679 347 564 708 679 564 b 350 -14 679 131 564 -14 m 225 347 b 350 32 225 131 292 32 b 475 347 408 32 475 131 b 350 663 475 564 408 663 b 225 347 292 663 225 564 "},"p":{"ha":696,"x_min":0,"x_max":0,"o":"m 60 482 b 60 596 17 526 7 553 l 153 672 b 207 694 167 683 189 694 b 244 642 228 694 244 682 b 400 708 289 683 342 708 b 675 346 553 708 675 538 b 400 -14 675 156 553 -14 b 244 51 342 -14 289 11 l 244 -137 b 283 -315 244 -251 283 -283 b 244 -347 283 -336 271 -347 l 60 -347 b 21 -315 21 -347 21 -315 b 60 -137 21 -283 60 -251 l 60 482 m 344 631 b 244 571 307 631 272 607 l 244 122 b 344 64 272 88 307 64 b 471 346 443 64 471 224 b 344 631 471 469 443 631 "},"q":{"ha":696,"x_min":0,"x_max":0,"o":"m 21 346 b 296 708 21 538 143 708 b 457 636 356 708 413 682 b 593 694 474 653 524 694 b 636 633 635 694 636 675 l 636 -137 b 675 -315 636 -251 675 -283 b 636 -347 675 -336 663 -347 l 451 -347 b 413 -315 413 -347 413 -315 b 451 -137 413 -283 451 -251 l 451 51 b 296 -14 407 11 354 -14 b 21 346 143 -14 21 156 m 225 346 b 351 64 225 224 253 64 b 451 122 389 64 424 88 l 451 571 b 351 631 424 607 389 631 b 225 346 253 631 225 469 "},"r":{"ha":643,"x_min":0,"x_max":0,"o":"m 60 483 b 60 597 60 546 7 554 l 153 674 b 204 694 165 685 186 694 b 244 635 226 694 244 681 l 244 628 b 418 708 292 675 349 708 b 622 561 504 708 622 654 b 538 486 622 526 592 486 b 385 633 436 486 446 633 b 244 550 346 633 292 600 l 244 210 b 283 32 244 96 283 64 b 244 0 283 0 244 0 b 60 0 244 0 60 0 b 21 32 33 0 21 11 b 60 210 21 64 60 96 l 60 483 "},"s":{"ha":585,"x_min":0,"x_max":0,"o":"m 286 -14 b 21 150 125 -14 21 57 b 106 225 21 185 51 225 b 285 32 207 225 185 32 b 371 132 336 32 371 83 b 24 511 371 282 24 329 b 297 708 24 654 194 708 b 563 544 458 708 563 638 b 478 469 563 510 532 469 b 299 663 376 469 399 663 b 213 563 247 663 213 611 b 564 176 213 413 564 358 b 286 -14 564 33 389 -14 "},"t":{"ha":553,"x_min":0,"x_max":0,"o":"m 44 649 b 44 694 13 649 13 694 l 142 694 l 142 761 b 142 875 99 806 89 832 l 235 951 b 286 972 247 963 268 972 b 326 913 308 972 326 958 l 326 694 l 424 694 b 424 649 456 694 456 649 l 326 649 l 326 297 b 368 49 326 239 326 49 b 414 165 406 49 410 100 b 472 221 417 203 444 221 b 531 154 504 221 535 197 b 332 0 525 96 469 0 b 142 297 122 0 142 201 l 142 649 l 44 649 "},"u":{"ha":682,"x_min":0,"x_max":0,"o":"m 57 481 b 57 594 14 525 4 551 l 150 671 b 201 694 163 683 183 694 b 242 632 224 694 242 679 l 242 172 b 292 61 242 118 243 61 b 438 171 336 61 393 106 l 438 481 b 438 594 394 525 385 551 l 531 671 b 583 694 544 682 565 694 b 622 632 604 694 622 679 l 622 210 b 661 32 622 96 661 64 b 622 0 661 11 649 0 l 481 0 b 438 61 439 0 438 19 l 438 89 b 256 -14 390 31 332 -14 b 57 167 124 -14 57 25 l 57 481 "},"v":{"ha":744,"x_min":0,"x_max":0,"o":"m 21 663 b 60 694 21 694 60 694 b 261 694 60 694 261 694 b 300 663 300 694 300 663 b 315 485 300 631 278 608 l 442 69 l 554 485 b 507 663 583 590 507 631 b 546 694 507 694 546 694 b 685 694 546 694 685 694 b 724 663 724 694 724 663 b 601 485 724 631 632 596 l 490 72 b 440 0 479 32 468 0 l 303 0 b 249 69 279 0 263 25 l 122 485 b 21 663 89 594 21 631 "},"w":{"ha":1192,"x_min":0,"x_max":0,"o":"m 122 485 b 21 663 89 594 21 631 b 60 694 21 694 60 694 b 261 694 60 694 261 694 b 300 663 288 694 300 683 b 315 485 300 631 278 608 l 442 69 l 554 485 b 560 513 557 494 558 504 b 468 663 525 601 468 633 b 507 694 468 694 507 694 b 708 694 507 694 708 694 b 747 663 735 694 747 683 b 763 485 747 631 725 608 l 889 69 l 1001 485 b 954 663 1031 590 954 631 b 993 694 954 694 993 694 b 1132 694 993 694 1132 694 b 1171 663 1158 694 1171 683 b 1049 485 1171 631 1079 596 l 938 72 b 888 0 926 32 915 0 l 750 0 b 696 69 726 0 710 25 l 586 429 l 490 72 b 440 0 479 32 468 0 l 303 0 b 249 69 279 0 263 25 l 122 485 "},"x":{"ha":706,"x_min":0,"x_max":0,"o":"m 278 311 b 21 663 167 469 21 622 b 60 694 21 683 33 694 l 261 694 b 300 663 300 694 300 663 b 394 422 300 590 340 506 l 435 485 b 436 663 506 596 436 631 b 475 694 436 683 449 694 l 614 694 b 653 663 653 694 653 663 b 489 485 653 631 572 614 l 422 382 b 685 32 535 222 685 74 b 646 0 685 11 672 0 l 444 0 b 406 32 406 0 406 32 b 306 269 406 99 363 183 l 267 210 b 265 32 194 100 265 64 b 226 0 265 11 253 0 l 88 0 b 49 32 49 0 49 32 b 213 210 49 64 129 81 l 278 311 "},"y":{"ha":774,"x_min":0,"x_max":0,"o":"m 114 540 b 21 663 94 582 21 628 b 60 694 21 683 33 694 l 260 694 b 299 663 299 694 299 663 b 299 579 299 639 285 608 l 467 208 l 565 485 b 508 663 606 599 508 631 b 547 694 508 683 521 694 l 714 694 b 753 663 753 694 753 663 b 615 485 753 631 669 619 b 190 -347 482 153 369 -347 b 25 -210 132 -347 25 -310 b 103 -139 25 -162 64 -139 b 174 -203 139 -139 174 -160 b 190 -301 174 -258 172 -301 b 375 -37 257 -301 317 -189 l 114 540 "},"z":{"ha":706,"x_min":0,"x_max":0,"o":"m 21 32 b 406 649 21 99 406 425 l 332 649 b 153 469 232 649 254 469 b 68 544 99 469 68 510 b 333 694 68 638 172 694 l 646 694 b 685 663 685 694 685 663 b 301 46 685 596 301 247 l 374 46 b 553 225 474 46 451 225 b 638 150 607 225 638 185 b 372 0 638 57 533 0 l 60 0 b 21 32 21 0 21 32 "},"A":{"ha":861,"x_min":0,"x_max":0,"o":"m 21 32 b 143 210 21 64 104 101 l 371 833 l 365 851 b 322 940 353 892 322 903 b 363 972 322 961 340 972 l 489 972 b 533 901 513 972 519 944 l 760 210 b 840 32 794 101 840 64 b 801 0 840 0 801 0 b 617 0 801 0 617 0 b 578 32 590 0 578 11 b 575 210 578 64 610 100 l 536 335 b 494 369 531 354 522 369 l 271 369 b 238 336 253 369 243 353 l 193 210 b 238 32 160 106 238 64 b 199 0 238 0 199 0 b 60 0 199 0 60 0 b 21 32 33 0 21 11 m 274 436 b 283 415 269 425 272 415 l 485 415 b 499 443 504 415 501 435 l 394 763 l 274 436 "},"B":{"ha":696,"x_min":0,"x_max":0,"o":"m 21 940 b 60 972 21 961 33 972 l 372 972 b 647 719 525 972 647 868 b 538 492 647 626 606 543 b 675 276 618 450 675 372 b 400 0 675 126 553 0 l 60 0 b 21 32 21 0 21 32 b 60 210 21 64 60 96 l 60 763 b 21 940 60 876 21 908 m 244 210 b 268 78 244 143 242 78 l 344 78 b 471 276 443 78 471 194 b 331 451 471 357 429 451 b 317 451 326 451 322 451 b 244 417 285 451 244 450 l 244 210 m 268 894 b 244 763 242 894 244 829 l 244 554 b 314 521 244 524 286 521 b 331 521 321 521 326 521 b 443 719 429 521 443 638 b 317 894 443 800 415 894 l 268 894 "},"C":{"ha":715,"x_min":0,"x_max":0,"o":"m 21 479 b 442 986 21 824 214 986 b 693 842 560 986 693 935 b 608 767 693 807 663 767 b 442 940 507 767 517 940 b 225 479 383 940 225 824 b 456 32 225 150 379 32 b 581 158 524 32 565 97 b 636 204 589 192 613 204 b 693 139 669 204 700 178 b 456 -14 683 89 603 -14 b 21 479 214 -14 21 151 "},"D":{"ha":735,"x_min":0,"x_max":0,"o":"m 21 940 b 60 972 21 961 33 972 l 293 972 b 714 479 532 972 714 824 b 293 0 714 150 532 0 l 60 0 b 21 32 21 0 21 32 b 60 210 21 64 60 96 l 60 763 b 21 940 60 876 21 908 m 244 210 b 267 46 244 113 240 46 l 293 46 b 510 479 356 46 510 150 b 293 926 510 824 351 926 l 267 926 b 244 763 240 926 244 860 l 244 210 "},"E":{"ha":692,"x_min":0,"x_max":0,"o":"m 21 940 b 60 972 21 972 60 972 b 633 972 60 972 633 972 b 650 938 667 972 658 951 l 597 851 b 568 832 589 838 579 832 b 550 835 554 832 561 828 b 399 926 522 851 531 926 l 281 926 b 244 763 254 926 244 860 l 244 496 b 418 588 383 501 378 588 b 440 560 440 588 440 560 b 440 386 440 560 440 386 b 418 358 440 358 418 358 b 244 450 378 358 383 444 l 244 210 b 281 46 244 113 254 46 l 428 46 b 650 176 568 46 604 176 b 663 172 654 176 658 175 b 619 26 694 154 621 28 b 549 0 607 4 569 0 l 60 0 b 21 32 21 0 21 32 b 60 210 21 64 60 96 l 60 763 b 21 940 60 876 21 908 "},"F":{"ha":678,"x_min":0,"x_max":0,"o":"m 60 763 b 21 940 60 876 21 908 b 60 972 21 972 60 972 b 633 972 60 972 633 972 b 650 938 667 972 658 951 l 597 851 b 568 832 589 838 579 832 b 550 835 554 832 561 828 b 399 926 522 851 531 926 l 281 926 b 244 763 254 926 244 860 l 244 496 b 418 588 383 501 378 588 b 440 560 440 588 440 560 b 440 386 440 560 440 386 b 418 358 440 358 418 358 b 244 450 378 358 383 444 l 244 210 b 283 32 244 96 283 64 b 244 0 283 0 244 0 b 60 0 244 0 60 0 b 21 32 21 0 21 32 b 60 210 21 64 60 96 l 60 763 "},"G":{"ha":744,"x_min":0,"x_max":0,"o":"m 450 -14 b 21 479 200 -14 21 150 b 440 986 21 786 178 986 b 724 842 614 986 724 940 b 639 767 724 807 693 767 b 440 940 538 767 571 940 b 225 479 347 940 225 786 b 450 32 225 150 365 32 b 538 67 490 32 518 46 l 538 294 b 538 408 494 339 485 365 l 631 485 b 682 506 643 496 664 506 b 722 446 704 506 722 492 l 722 64 b 679 0 722 22 721 0 b 593 22 644 0 615 10 b 450 -14 556 1 508 -14 "},"H":{"ha":746,"x_min":0,"x_max":0,"o":"m 60 763 b 21 940 60 876 21 908 b 60 972 21 961 33 972 l 244 972 b 283 940 283 972 283 940 b 244 763 283 908 244 876 l 244 526 b 278 485 244 500 258 485 l 467 485 b 501 526 486 485 501 500 l 501 763 b 463 940 501 876 463 908 b 501 972 463 961 475 972 l 686 972 b 725 940 725 972 725 940 b 686 763 725 908 686 876 l 686 210 b 725 32 686 96 725 64 b 686 0 725 11 713 0 l 501 0 b 463 32 463 0 463 32 b 501 210 463 64 501 96 l 501 404 b 467 439 501 431 486 439 l 278 439 b 244 404 258 439 244 431 l 244 210 b 283 32 244 96 283 64 b 244 0 283 11 271 0 l 60 0 b 21 32 21 0 21 32 b 60 210 21 64 60 96 l 60 763 "},"I":{"ha":304,"x_min":0,"x_max":0,"o":"m 60 763 b 21 940 60 876 21 908 b 60 972 21 972 60 972 b 244 972 60 972 244 972 b 283 940 283 972 283 940 b 244 763 283 908 244 876 l 244 210 b 283 32 244 96 283 64 b 244 0 283 0 244 0 b 60 0 244 0 60 0 b 21 32 21 0 21 32 b 60 210 21 64 60 96 l 60 763 "},"J":{"ha":632,"x_min":0,"x_max":0,"o":"m 21 161 b 97 236 21 194 49 236 b 106 236 100 236 103 236 b 269 32 206 226 168 32 b 388 404 381 32 388 285 l 388 763 b 349 940 388 876 349 908 b 388 972 349 972 388 972 b 572 972 388 972 572 972 b 611 940 611 972 611 940 b 572 763 611 908 572 876 l 572 404 b 269 -14 572 249 583 -14 b 21 161 100 -14 22 85 "},"K":{"ha":706,"x_min":0,"x_max":0,"o":"m 60 763 b 21 940 60 876 21 908 b 60 972 21 961 33 972 l 244 972 b 283 940 283 972 283 940 b 244 763 283 908 244 876 l 244 549 b 499 892 390 606 475 754 b 478 949 501 915 478 935 b 525 972 478 964 493 972 l 622 972 b 669 949 669 972 669 949 b 644 900 669 931 654 924 b 329 526 606 754 492 601 b 631 117 536 488 608 171 b 685 32 647 75 685 69 b 643 0 685 7 665 0 l 468 0 b 424 72 444 0 433 22 b 244 468 401 189 346 468 l 244 210 b 283 32 244 96 283 64 b 244 0 283 11 271 0 l 60 0 b 21 32 21 0 21 32 b 60 210 21 64 60 96 l 60 763 "},"L":{"ha":692,"x_min":0,"x_max":0,"o":"m 60 763 b 21 940 60 876 21 908 b 60 972 21 972 60 972 b 244 972 60 972 244 972 b 283 940 283 972 283 940 b 244 763 283 908 244 876 l 244 210 b 281 46 244 113 254 46 l 428 46 b 650 176 568 46 604 176 b 663 172 654 176 658 175 b 619 26 694 154 621 28 b 549 0 607 4 569 0 l 60 0 b 21 32 21 0 21 32 b 60 210 21 64 60 96 l 60 763 "},"M":{"ha":974,"x_min":0,"x_max":0,"o":"m 111 776 b 19 950 106 915 19 910 b 47 972 19 972 47 972 b 157 972 47 972 157 972 b 554 94 468 972 529 156 l 690 940 b 729 972 690 972 729 972 b 914 972 729 972 914 972 b 953 940 940 972 953 961 b 914 763 953 908 914 876 l 914 210 b 953 32 914 96 953 64 b 914 0 953 0 914 0 b 729 0 914 0 729 0 b 690 32 703 0 690 11 b 729 210 690 64 729 96 l 729 763 b 722 840 729 794 726 819 l 590 29 b 550 0 586 10 569 0 l 394 0 b 350 72 371 0 360 22 b 157 768 328 189 267 768 l 157 196 b 249 22 163 57 249 63 b 221 0 249 0 221 0 b 47 0 221 0 47 0 b 19 22 29 0 19 7 b 111 196 19 63 106 57 l 111 776 "},"N":{"ha":872,"x_min":0,"x_max":0,"o":"m 113 776 b 21 950 107 915 21 910 b 49 972 21 972 49 972 b 158 972 49 972 158 972 b 714 250 394 972 611 503 l 714 776 b 622 950 708 915 622 910 b 650 972 622 972 650 972 b 824 972 650 972 824 972 b 851 950 842 972 851 965 b 760 776 851 910 765 915 l 760 196 b 851 22 765 57 851 63 b 824 0 851 0 824 0 b 614 0 824 0 614 0 b 569 72 590 0 579 22 b 158 768 547 189 268 768 l 158 196 b 250 22 164 57 250 63 b 222 0 250 0 222 0 b 49 0 222 0 49 0 b 21 22 31 0 21 7 b 113 196 21 63 107 57 l 113 776 "},"O":{"ha":811,"x_min":0,"x_max":0,"o":"m 406 -14 b 21 489 164 -14 21 203 b 406 986 21 775 164 986 b 790 489 647 986 790 775 b 406 -14 790 203 647 -14 m 225 489 b 406 32 225 203 319 32 b 586 489 492 32 586 203 b 406 940 586 775 492 940 b 225 489 319 940 225 775 "},"P":{"ha":696,"x_min":0,"x_max":0,"o":"m 21 940 b 60 972 21 961 33 972 l 244 972 b 288 964 264 972 274 964 b 282 951 296 964 304 965 b 400 986 317 974 357 986 b 675 638 553 986 675 829 b 400 290 675 447 553 290 b 244 351 342 290 289 313 l 244 210 b 283 32 244 96 283 64 b 244 0 283 11 271 0 l 60 0 b 21 32 21 0 21 32 b 60 210 21 64 60 96 l 60 763 b 21 940 60 876 21 908 m 244 422 b 344 368 272 389 307 368 b 471 638 443 368 471 515 b 344 908 471 761 443 908 b 244 763 253 908 244 835 "},"Q":{"ha":811,"x_min":0,"x_max":0,"o":"m 406 -14 b 21 489 164 -14 21 203 b 406 986 21 775 164 986 b 790 489 647 986 790 775 b 485 -6 790 235 678 36 b 590 -110 507 -36 544 -78 b 786 -225 664 -161 761 -147 b 701 -347 806 -285 761 -347 b 688 -347 697 -347 692 -347 b 479 -147 603 -347 540 -287 l 428 -14 l 406 -14 m 406 940 b 225 489 319 940 225 775 b 406 32 225 203 319 32 b 586 489 492 32 586 203 b 406 940 586 775 492 940 "},"R":{"ha":722,"x_min":0,"x_max":0,"o":"m 21 32 b 60 210 21 64 60 96 l 60 763 b 21 940 60 876 21 908 b 60 972 21 961 33 972 l 244 972 b 281 967 258 972 267 967 b 278 958 290 967 300 969 b 400 986 315 976 356 986 b 675 679 553 986 675 871 b 482 372 675 524 594 410 b 647 117 592 290 631 158 b 701 32 664 75 701 69 b 660 0 701 7 682 0 l 485 0 b 440 72 461 0 450 22 b 335 368 424 160 396 301 b 244 413 303 376 272 392 l 244 210 b 283 32 244 96 283 64 b 244 0 283 11 271 0 l 60 0 b 21 32 21 0 21 32 m 244 483 b 344 438 272 456 307 438 b 471 679 443 438 471 557 b 344 908 471 803 443 908 b 244 763 247 908 244 843 "},"S":{"ha":640,"x_min":0,"x_max":0,"o":"m 293 -14 b 21 136 132 -14 21 43 b 106 211 21 171 51 211 b 292 32 207 211 192 32 b 426 174 413 32 426 125 b 24 746 426 421 24 467 b 346 986 24 889 174 986 b 618 836 521 986 618 929 b 533 761 618 801 588 761 b 347 940 432 761 461 940 b 213 797 226 940 213 846 b 619 218 213 550 619 497 b 293 -14 619 75 465 -14 "},"T":{"ha":911,"x_min":0,"x_max":0,"o":"m 26 938 b 43 972 22 951 10 972 l 868 972 b 885 938 901 972 889 951 l 832 761 b 803 742 824 747 814 742 b 785 744 789 742 796 738 b 633 926 757 761 765 926 l 585 926 b 549 763 543 926 549 860 l 549 210 b 588 32 549 96 588 64 b 549 0 588 11 575 0 l 364 0 b 325 32 325 0 325 32 b 364 210 325 64 364 96 l 364 763 b 328 926 364 860 369 926 l 278 926 b 126 744 146 926 153 764 b 110 739 121 740 115 739 b 79 761 99 739 89 746 l 26 938 "},"U":{"ha":776,"x_min":0,"x_max":0,"o":"m 60 763 b 21 940 60 876 21 908 b 60 972 21 972 60 972 b 244 972 60 972 244 972 b 283 940 283 972 283 940 b 244 763 283 908 244 876 l 244 251 b 432 50 244 118 338 50 b 618 251 525 50 618 118 l 618 776 b 526 950 613 915 526 910 b 554 972 526 972 554 972 b 728 972 554 972 728 972 b 756 950 756 972 756 950 b 664 776 756 910 669 915 l 664 251 b 363 -14 664 75 513 -14 b 60 251 211 -14 60 75 l 60 763 "},"V":{"ha":900,"x_min":0,"x_max":0,"o":"m 21 940 b 60 972 21 972 60 972 b 261 972 60 972 261 972 b 300 940 300 972 300 940 b 315 763 300 908 278 886 l 522 69 l 710 763 b 663 940 739 868 663 908 b 701 972 663 972 701 972 b 840 972 701 972 840 972 b 879 940 879 972 879 940 b 757 763 879 908 788 874 l 571 72 b 521 0 560 32 549 0 l 383 0 b 329 69 360 0 343 25 l 122 763 b 21 940 89 872 21 908 "},"W":{"ha":1392,"x_min":0,"x_max":0,"o":"m 122 763 b 21 940 89 872 21 908 b 60 972 21 972 60 972 b 261 972 60 972 261 972 b 300 940 288 972 300 961 b 315 763 300 908 278 886 l 522 69 l 654 763 b 658 813 657 781 658 797 b 572 940 626 885 572 914 b 611 972 572 972 611 972 b 808 972 611 972 808 972 b 847 940 835 972 847 961 b 863 763 847 908 835 889 l 1014 69 l 1201 763 b 1154 940 1231 868 1154 908 b 1193 972 1154 972 1193 972 b 1332 972 1193 972 1332 972 b 1371 940 1358 972 1371 961 b 1249 763 1371 908 1279 874 l 1063 72 b 1013 0 1051 32 1040 0 l 879 0 b 825 69 856 0 835 25 l 689 694 l 569 72 b 521 0 561 32 549 0 l 383 0 b 329 69 360 0 343 25 l 122 763 "},"X":{"ha":863,"x_min":0,"x_max":0,"o":"m 357 442 b 21 940 204 668 21 901 b 60 972 21 961 33 972 l 261 972 b 300 940 300 972 300 940 b 475 567 300 856 378 714 l 621 763 b 625 940 699 867 625 908 b 664 972 625 961 638 972 l 803 972 b 842 940 842 972 842 940 b 678 763 842 908 771 888 l 501 526 b 842 32 656 300 842 71 b 803 0 842 11 829 0 l 601 0 b 563 32 563 0 563 32 b 385 400 563 110 483 251 l 242 210 b 238 32 164 106 238 64 b 199 0 238 11 225 0 l 60 0 b 21 32 21 0 21 32 b 185 210 21 64 92 85 l 357 442 "},"Y":{"ha":817,"x_min":0,"x_max":0,"o":"m 21 940 b 60 972 21 972 60 972 b 261 972 60 972 261 972 b 300 940 288 972 300 961 b 315 763 300 908 251 888 l 481 442 l 626 763 b 579 940 676 871 579 908 b 618 972 579 972 618 972 b 757 972 618 972 757 972 b 796 940 783 972 796 961 b 674 763 796 908 725 876 l 529 444 b 503 372 519 422 503 383 l 503 210 b 542 32 503 96 542 64 b 503 0 542 0 503 0 b 318 0 503 0 318 0 b 279 32 292 0 279 11 b 318 210 279 64 318 96 l 318 372 b 288 442 318 383 300 418 l 122 763 b 21 940 65 872 21 908 "},"Z":{"ha":789,"x_min":0,"x_max":0,"o":"m 21 32 b 489 926 21 99 489 703 l 318 926 b 139 747 218 926 240 747 b 54 822 85 747 54 788 b 319 972 54 915 158 972 l 729 972 b 768 940 768 972 768 940 b 301 46 768 874 301 247 l 471 46 b 650 225 571 46 549 225 b 735 150 704 225 735 185 b 469 0 735 57 631 0 l 60 0 b 21 32 21 0 21 32 "},".":{"ha":210,"x_min":0,"x_max":0,"o":"m 21 71 b 106 154 21 117 58 154 b 189 71 151 154 189 117 b 106 -14 189 24 151 -14 b 21 71 58 -14 21 24 "},",":{"ha":210,"x_min":0,"x_max":0,"o":"m 86 -14 b 21 68 49 -6 21 28 b 106 151 21 114 58 151 b 189 61 150 151 189 115 b 47 -99 189 -17 129 -99 b 26 -87 32 -99 26 -93 b 40 -76 26 -83 28 -79 b 86 -14 71 -69 86 -37 "},"":{"ha":975,"x_min":0,"x_max":0,"o":"m 113 776 b 21 950 107 915 21 910 b 49 972 21 965 31 972 l 158 972 b 556 94 469 972 531 156 l 692 940 b 732 972 692 972 732 972 b 1324 1042 913 972 1082 1042 b 1553 896 1415 1042 1572 1025 b 1461 814 1546 850 1511 814 b 1449 815 1457 814 1453 815 b 1228 957 1371 825 1308 931 b 1135 972 1199 967 1167 972 b 951 926 1072 972 1007 954 b 915 763 926 914 915 860 l 915 210 b 954 32 915 96 954 64 b 915 0 954 11 942 0 l 731 0 b 692 32 704 0 692 11 b 731 210 692 64 731 96 l 731 763 b 724 839 731 793 728 818 l 592 29 b 551 0 588 10 571 0 l 396 0 b 351 72 372 0 361 22 b 158 768 329 189 268 768 l 158 196 b 250 22 164 57 250 63 b 222 0 250 7 240 0 l 49 0 b 21 22 31 0 21 7 b 113 196 21 63 107 57 "},"":{"ha":713,"x_min":0,"x_max":0,"o":"m -514 -285 b -460 -81 -615 -226 -587 -81 b 282 -287 -272 -81 -158 -287 b 481 -119 442 -287 481 -197 b 197 32 481 -14 365 14 b 97 151 104 42 72 94 b 132 222 115 192 128 214 b 21 438 68 261 21 328 b 303 707 21 636 176 699 b 500 889 308 731 344 889 b 692 756 572 889 692 849 b 607 681 692 721 661 681 b 468 829 506 681 544 829 b 350 708 382 829 354 729 b 651 438 479 704 651 647 b 336 172 651 221 467 172 b 176 200 286 172 229 179 b 156 143 169 183 161 161 b 225 126 151 129 178 126 b 338 128 256 126 293 128 b 689 -85 632 128 689 4 b 282 -333 689 -303 371 -325 b -54 -347 222 -339 89 -347 b -514 -285 -233 -347 -428 -335 m 225 438 b 336 218 225 249 292 218 b 447 438 381 218 447 249 b 336 663 447 626 381 663 b 225 438 292 663 225 626 "},"":{"ha":700,"x_min":0,"x_max":0,"o":"m 350 -14 b 21 347 136 -14 21 131 b 350 708 21 564 136 708 b 650 764 383 708 531 764 b 907 618 742 764 926 747 b 814 538 900 571 864 538 b 803 538 810 538 807 538 b 582 665 725 546 674 635 b 513 678 553 675 531 678 b 679 347 625 625 679 506 b 350 -14 679 131 564 -14 m 350 663 b 225 347 292 663 225 564 b 350 32 225 131 292 32 b 475 347 408 32 475 131 b 350 663 475 564 408 663 "},"":{"ha":608,"x_min":0,"x_max":0,"o":"m 21 32 b 60 210 21 64 60 96 l 60 744 b 289 1056 60 1011 179 1056 b 553 888 335 1056 553 1036 b 454 800 553 843 517 800 b 289 1010 311 800 381 1010 b 244 844 258 1010 244 958 l 244 210 b 283 32 244 96 283 64 b 244 0 283 0 244 0 b 60 0 244 0 60 0 b 21 32 21 0 21 32 m 457 668 b 513 694 471 681 493 694 b 549 629 532 694 549 679 l 549 210 b 588 32 549 96 588 64 b 549 0 588 0 549 0 b 364 0 364 0 364 0 b 325 32 364 0 325 0 b 364 210 325 64 364 96 l 364 478 b 364 592 321 522 311 549 "},"":{"ha":4158,"x_min":0,"x_max":0,"o":"m 1306 397 b 1200 197 1258 364 1200 308 b 1272 78 1200 157 1210 78 b 1339 100 1297 78 1318 88 b 1369 418 1346 179 1364 279 l 1369 442 b 1306 397 1354 431 1332 415 m 1940 218 b 2051 438 1985 218 2051 249 b 1940 663 2051 626 1985 663 b 1829 438 1896 663 1829 626 b 1940 218 1829 249 1896 218 m 3454 347 b 3579 32 3454 131 3521 32 b 3704 347 3638 32 3704 131 b 3579 663 3704 564 3638 663 b 3454 347 3521 663 3454 564 m 113 776 b 21 950 107 915 21 910 b 49 972 21 965 31 972 l 158 972 b 556 94 469 972 531 156 l 692 940 b 732 972 692 972 732 972 b 1324 1042 913 972 1082 1042 b 1553 896 1415 1042 1572 1025 b 1461 814 1546 850 1511 814 b 1449 815 1457 814 1453 815 b 1228 957 1371 825 1308 931 b 1135 972 1199 967 1167 972 b 951 926 1072 972 1007 954 b 915 763 926 914 915 860 l 915 210 b 954 32 915 96 954 64 b 915 0 954 11 942 0 l 731 0 b 692 32 704 0 692 11 b 731 210 692 64 731 96 l 731 763 b 724 839 731 793 728 818 l 592 29 b 551 0 588 10 571 0 l 396 0 b 351 72 372 0 361 22 b 158 768 329 189 268 768 l 158 196 b 250 22 164 57 250 63 b 222 0 250 7 240 0 l 49 0 b 21 22 31 0 21 7 b 113 196 21 63 107 57 m 996 185 b 1288 460 996 364 1157 401 b 1367 506 1315 472 1344 490 b 1286 663 1360 594 1333 663 b 1078 486 1225 663 1179 486 b 1003 561 1024 486 1003 526 b 1286 708 1003 654 1119 708 b 1522 546 1443 708 1504 649 b 1554 121 1535 476 1543 178 b 1597 32 1563 79 1597 69 b 1557 0 1597 11 1579 0 l 1382 0 b 1342 38 1365 0 1349 11 b 1190 -15 1301 7 1242 -15 b 996 185 1071 -15 996 86 m 1886 -333 b 1550 -347 1826 -339 1693 -347 b 1090 -285 1371 -347 1176 -335 b 1144 -81 989 -226 1017 -81 b 1886 -287 1332 -81 1446 -287 b 2085 -119 2046 -287 2085 -197 b 1801 32 2085 -14 1969 14 b 1701 151 1708 42 1676 94 b 1736 222 1719 192 1732 214 b 1625 438 1672 261 1625 328 b 1907 707 1625 636 1781 699 b 2104 889 1913 731 1949 889 b 2296 756 2176 889 2296 849 b 2211 681 2296 721 2265 681 b 2072 829 2110 681 2149 829 b 1954 708 1986 829 1958 729 b 2256 438 2083 704 2256 647 b 1940 172 2256 221 2071 172 b 1781 200 1890 172 1833 179 b 1760 143 1774 183 1765 161 b 1829 126 1756 129 1782 126 b 1942 128 1860 126 1897 128 b 2293 -85 2236 128 2293 4 b 1886 -333 2293 -303 1975 -325 m 2561 210 b 2600 32 2561 96 2600 64 b 2561 0 2600 0 2561 0 l 2376 0 b 2338 32 2376 0 2338 0 b 2376 210 2338 64 2376 96 l 2376 478 b 2376 592 2333 522 2324 549 l 2469 668 b 2525 694 2483 681 2506 694 b 2561 629 2544 694 2561 679 m 2865 210 b 2904 32 2865 96 2904 64 b 2865 0 2904 0 2865 0 l 2681 0 b 2642 32 2681 0 2642 0 b 2681 210 2642 64 2681 96 l 2681 744 b 2910 1056 2681 1011 2800 1056 b 3174 888 2956 1056 3174 1036 b 3075 800 3174 843 3138 800 b 2910 1010 2932 800 3001 1010 b 2865 844 2879 1010 2865 958 m 3169 210 b 3208 32 3169 96 3208 64 b 3169 0 3208 0 3169 0 l 2985 0 b 2946 32 2985 0 2946 0 b 2985 210 2946 64 2985 96 l 2985 478 b 2985 592 2942 522 2932 549 l 3078 668 b 3133 694 3092 681 3114 694 b 3169 629 3153 694 3169 679 m 3250 347 b 3579 708 3250 564 3365 708 b 3879 764 3613 708 3760 764 b 4136 618 3971 764 4156 747 b 4043 538 4129 571 4093 538 b 4032 538 4039 538 4036 538 b 3811 665 3954 546 3903 635 b 3742 678 3782 675 3760 678 b 3908 347 3854 625 3908 506 b 3579 -14 3908 131 3793 -14 b 3250 347 3365 -14 3250 131 m 2343 914 b 2469 1042 2343 983 2399 1042 b 2594 914 2539 1042 2594 983 b 2469 788 2594 843 2539 788 b 2343 914 2399 788 2343 843 "}}}
